<mxfile host="app.diagrams.net" agent="Mozilla/5.0 (Windows NT 10.0; Win64; x64) AppleWebKit/537.36 (KHTML, like Gecko) Chrome/133.0.0.0 Safari/537.36" version="26.2.8">
  <diagram name="Strona-1" id="ZASGNLHJ9hJFpwErIW_f">
    <mxGraphModel dx="1428" dy="785" grid="1" gridSize="10" guides="1" tooltips="1" connect="1" arrows="1" fold="1" page="1" pageScale="1" pageWidth="1169" pageHeight="827" math="0" shadow="0">
      <root>
        <mxCell id="0" />
        <mxCell id="1" parent="0" />
        <mxCell id="Pjrin1gWPLtBC2j21D5B-2" value="&lt;font style=&quot;font-size: 19px;&quot;&gt;Tokenization&lt;/font&gt;&lt;div&gt;&lt;font style=&quot;font-size: 19px;&quot;&gt;Visualizer&lt;/font&gt;&lt;/div&gt;" style="ellipse;whiteSpace=wrap;html=1;fillColor=light-dark(#B1DDF0,#2E7FA0);strokeColor=#10739e;gradientColor=none;fillStyle=auto;" parent="1" vertex="1">
          <mxGeometry x="512" y="372" width="145" height="104" as="geometry" />
        </mxCell>
        <mxCell id="Pjrin1gWPLtBC2j21D5B-3" value="" style="endArrow=classic;html=1;rounded=0;" parent="1" source="Pjrin1gWPLtBC2j21D5B-2" edge="1">
          <mxGeometry width="50" height="50" relative="1" as="geometry">
            <mxPoint x="670" y="380" as="sourcePoint" />
            <mxPoint x="800" y="170" as="targetPoint" />
            <Array as="points">
              <mxPoint x="620" y="170" />
            </Array>
          </mxGeometry>
        </mxCell>
        <mxCell id="Pjrin1gWPLtBC2j21D5B-5" value="FRONTEND" style="edgeLabel;html=1;align=center;verticalAlign=middle;resizable=0;points=[];" parent="Pjrin1gWPLtBC2j21D5B-3" vertex="1" connectable="0">
          <mxGeometry x="0.5318" y="-2" relative="1" as="geometry">
            <mxPoint x="-5" y="-2" as="offset" />
          </mxGeometry>
        </mxCell>
        <mxCell id="Pjrin1gWPLtBC2j21D5B-4" value="" style="endArrow=classic;html=1;rounded=0;" parent="1" source="Pjrin1gWPLtBC2j21D5B-2" edge="1">
          <mxGeometry width="50" height="50" relative="1" as="geometry">
            <mxPoint x="700" y="400" as="sourcePoint" />
            <mxPoint x="370" y="490" as="targetPoint" />
            <Array as="points">
              <mxPoint x="370" y="456" />
            </Array>
          </mxGeometry>
        </mxCell>
        <mxCell id="Pjrin1gWPLtBC2j21D5B-6" value="BACKEND" style="edgeLabel;html=1;align=center;verticalAlign=middle;resizable=0;points=[];" parent="Pjrin1gWPLtBC2j21D5B-4" vertex="1" connectable="0">
          <mxGeometry x="0.0588" y="-2" relative="1" as="geometry">
            <mxPoint x="16" y="2" as="offset" />
          </mxGeometry>
        </mxCell>
        <UserObject label="https://dotnet.microsoft.com/en-us/apps/aspnet/apis" link="https://dotnet.microsoft.com/en-us/apps/aspnet/apis" id="Pjrin1gWPLtBC2j21D5B-7">
          <mxCell style="text;whiteSpace=wrap;" parent="1" vertex="1">
            <mxGeometry x="225" y="520" width="280" height="30" as="geometry" />
          </mxCell>
        </UserObject>
        <mxCell id="Pjrin1gWPLtBC2j21D5B-8" value="ASP.NET Core Web API" style="text;whiteSpace=wrap;html=1;fontStyle=1" parent="1" vertex="1">
          <mxGeometry x="300" y="490" width="140" height="30" as="geometry" />
        </mxCell>
        <mxCell id="Pjrin1gWPLtBC2j21D5B-11" value="" style="endArrow=classic;html=1;rounded=0;" parent="1" source="Pjrin1gWPLtBC2j21D5B-2" edge="1">
          <mxGeometry width="50" height="50" relative="1" as="geometry">
            <mxPoint x="390" y="330" as="sourcePoint" />
            <mxPoint x="360" y="180" as="targetPoint" />
            <Array as="points">
              <mxPoint x="520" y="180" />
            </Array>
          </mxGeometry>
        </mxCell>
        <mxCell id="Pjrin1gWPLtBC2j21D5B-13" value="Tokenizer execution" style="edgeLabel;html=1;align=center;verticalAlign=middle;resizable=0;points=[];" parent="Pjrin1gWPLtBC2j21D5B-11" vertex="1" connectable="0">
          <mxGeometry x="0.4893" y="-1" relative="1" as="geometry">
            <mxPoint x="-11" as="offset" />
          </mxGeometry>
        </mxCell>
        <mxCell id="Pjrin1gWPLtBC2j21D5B-17" value="" style="endArrow=classic;html=1;rounded=0;" parent="1" source="Pjrin1gWPLtBC2j21D5B-2" edge="1">
          <mxGeometry width="50" height="50" relative="1" as="geometry">
            <mxPoint x="730" y="320" as="sourcePoint" />
            <mxPoint x="850" y="480" as="targetPoint" />
          </mxGeometry>
        </mxCell>
        <mxCell id="Pjrin1gWPLtBC2j21D5B-20" value="Containerization (optional)" style="edgeLabel;html=1;align=center;verticalAlign=middle;resizable=0;points=[];" parent="Pjrin1gWPLtBC2j21D5B-17" vertex="1" connectable="0">
          <mxGeometry x="0.115" y="-1" relative="1" as="geometry">
            <mxPoint y="-3" as="offset" />
          </mxGeometry>
        </mxCell>
        <mxCell id="Pjrin1gWPLtBC2j21D5B-18" value="Docker" style="text;html=1;align=center;verticalAlign=middle;resizable=0;points=[];autosize=1;strokeColor=none;fillColor=none;" parent="1" vertex="1">
          <mxGeometry x="850" y="470" width="60" height="30" as="geometry" />
        </mxCell>
        <mxCell id="Pjrin1gWPLtBC2j21D5B-40" value="" style="group" parent="1" vertex="1" connectable="0">
          <mxGeometry x="90" y="185" width="400" height="169.22999999999996" as="geometry" />
        </mxCell>
        <mxCell id="Pjrin1gWPLtBC2j21D5B-14" value="Python script (called via subprocess)" style="text;whiteSpace=wrap;html=1;fontStyle=1" parent="Pjrin1gWPLtBC2j21D5B-40" vertex="1">
          <mxGeometry x="120" width="230" height="40" as="geometry" />
        </mxCell>
        <mxCell id="Pjrin1gWPLtBC2j21D5B-15" value="Python libraries that might be useful:&lt;br&gt;&lt;table&gt;&lt;tbody&gt;&lt;tr&gt;&lt;td&gt;&lt;code data-start=&quot;4437&quot; data-end=&quot;4447&quot;&gt;tiktoken&lt;/code&gt;, &lt;code data-start=&quot;4449&quot; data-end=&quot;4463&quot;&gt;transformers&lt;/code&gt;, etc.&lt;/td&gt;&lt;/tr&gt;&lt;/tbody&gt;&lt;/table&gt;" style="text;whiteSpace=wrap;html=1;" parent="Pjrin1gWPLtBC2j21D5B-40" vertex="1">
          <mxGeometry y="25" width="210" height="50" as="geometry" />
        </mxCell>
        <mxCell id="Pjrin1gWPLtBC2j21D5B-24" value="We send a string and it sends us back token data (tokenized string)." style="text;html=1;align=center;verticalAlign=middle;resizable=0;points=[];autosize=1;strokeColor=none;fillColor=none;" parent="Pjrin1gWPLtBC2j21D5B-40" vertex="1">
          <mxGeometry x="20" y="70" width="380" height="30" as="geometry" />
        </mxCell>
        <mxCell id="Pjrin1gWPLtBC2j21D5B-35" value="" style="shape=image;verticalLabelPosition=bottom;labelBackgroundColor=default;verticalAlign=top;aspect=fixed;imageAspect=0;image=https://upload.wikimedia.org/wikipedia/commons/thumb/c/c3/Python-logo-notext.svg/1869px-Python-logo-notext.svg.png;" parent="Pjrin1gWPLtBC2j21D5B-40" vertex="1">
          <mxGeometry x="111" y="109.99999999999997" width="54" height="59.23" as="geometry" />
        </mxCell>
        <mxCell id="Pjrin1gWPLtBC2j21D5B-39" value="" style="shape=image;verticalLabelPosition=bottom;labelBackgroundColor=default;verticalAlign=top;aspect=fixed;imageAspect=0;image=data:image/png,iVBORw0KGgoAAAANSUhEUgAAAdUAAACfCAYAAACvDUNJAAAAAXNSR0IArs4c6QAAAARnQU1BAACxjwv8YQUAAAAJcEhZcwAADsMAAA7DAcdvqGQAAEZ2SURBVHhe7d13nBNl/gfwzzMzmSSbzRa2UXfpVQFBQYoURRQEQbGLeiiHoCKed4ceovATG6ciKCKn5ymKCMoBKh4KnoAoYEGqFGmCwPaazabNPM/vj5mE3STbMJ4Lft+v17zETTKZTPvO074PE0IIEEIIIeQXk8L/QAghhJAzQ0GVEEIIiREKqoQQQkiMUFAlhBBCYoSCKiGEEBIjFFQJIYSQGKGgSgghhMQIBVVCCCEkRiioEkIIITFCQZUQQgiJEQqqhBBCSIxQUCWEEEJihIIqIYQQEiMUVAkhhJAYoaBKCCGExAgFVUIIISRGKKgSQgghMUJBlRBCCIkRCqqEEEJIjFBQJYQQQmKEgiohhBASIxRUCSGEkBihoEoIIYTECAVVQgghJEYoqBJCCCExQkGVEEIIiREKqoQQQkiMUFAlhBBCYoSCKiGEEBIjFFQJIYSQGKGgSgghhMQIBVVCCCEkRiioEkIIITFCQZUQQgiJEQqqhBBCSIxQUCWEEEJihIIqIYQQEiMUVAkhhJAYoaBKCCGExAgFVUIIISRGKKgSQgghMUJBlRBCCIkRCqqEEEJIjFBQJYQQQmKECSFE+B9/V4RuLhqA8F0hAUwGmAIwev4ghBBSs99RUBWAEIDQIPyFEL58CH8JhDcbwpcPeE8Cglf9iGQBbM0g2ZqAWdPBrCmANR3M4jSCLVjV9xNCCPldO/eDqhCACEAEyiDKD4K79oEXbQMv2Q7uPgwEXMZ7asIkMGsapMQuYMk9ICWcD8nZAZKjJSA7AIkCLCGEkHM6qAqA+yG8udBz10LPXgNefgDCcwrQfWaptNJPry4mht7CAMaMKmGLA5K9BaTkHpCbXQOpUW8wSxJVERNCyO/cuRlUuQbhPgI97zNoPy+FKD8MESgBeKVAKjEwRQIkZizBfwcJAFwAOgd0AcGN/4IHdxcDZBXMmgqpUS8ombdBanQhmDWthghNCCHkXHZuBVXBIQJl4DlrEDj+DnjxN0Cg/HRbqQQwq2IuFjCLAqbIgCwZhdCIYCjMZlgd0HRwvwb4AhBeDSKgm/GZAZICZk2F3PhKKJljISX3BGRrlPURQgg5l507QZX7wcsPQfvpTeinVkFUnDR69TIAigRmVSDFWcFsZjCVz6yqVmg6hD8A7glAePwQPs0ovQoAkgopqSuUrLGQm44Cs2ZQlTAhhPyOnBtBlfvBi76Ff+//gRduBbjf+LvEwGwK5GQHJLu1avXuLyUEBBfg5R7opR7Ap50uuaoJUJpfB0v7v4LFtTB7ChNCCDnXnf1BVXNBz1mLwIG/g5f9AHDN6FNks0BKsEFy2IxSqVG/G3NCCMCvQXd5wMt9QEAHBAMsDshpg2Hp8BdIST2M4TmEEELOaWdxUDXGnGpH30Bg/2wIb06ouldyWiElx4OpCtivFEzDCS4gPH7oReUQ3oBRamUypLRLoHZ9FlJCF6oKJoSQc9zZG1S1cmgnliNw4FkI9xEjyMoSpCQ7ZKcdzKKEf+LXJwS4LwBeUgFe7gU4ANkGOX0QLB3+BqlRTyM7EyG/sfDL/n/18EnIue7sDKo8AD3vM/h3/QWi/KjRu9ciQ062Q06M+81LhDyggRe5jcCqC0BSIGdcDku3OZDismK2fUIIcM4jbpC/FsYYJEmiG/BZSggBXdeh6zpKSkrg8/kAAIoiIzm5EWRZhiRJoYUQUn9nX1AVOnjJTvh3TwUv2GwGVAlysgNygh1oIDcDoWnQi8rBy3xG72AlHkqL62HpPAPMlvGLh9sIIZCbm4uNGzfC7XaHv/yrkGUZgwYNQmZmJgXWs0xFRQWOHDmCjRs3YtOmTcjLy6sSVOPjnWjZsiW6deuGvn37okuXLnSMCTkDZ11QFRU/I7B3BrQTKwDdCyiSWUJ1NJiAGiQCGrRCF4TLb7Sxqk5YOj0GS6vxgGwLf3u9cM7x7bffYvz48Thx4kT4y78Ki8WCN954A8OHD6cb7lmCc46ioiK8v/x9zJs7D9nZ2SgvL49au2GxWOBwODB+/Hg88cQTUFU1/C2EkFo0rChUGx6AfmoV9Oz/GKkGGSA5bZASGl5ABQBmUSAnx4PZFaPNN+CCfuxt6KU7IpP315uApmkoKytDSUnJ/2wJBAJRb8ikYSopKcHLL7+MmTNm4uDBgygrKws1GYQvfr8fXq8XCQkJUBRq+yfkTDS8SFQdwcFLvof283sQgTKACbA4FVJi3BkncvhfkFQFclIcoMpGR6ayH6AdfR3CczL8rYTEFOcc33//PV599VXk5+eD89of5JxOoxqYaiIIOTMNNxqFEZoL+sl/g5fsrNQxKQ6SpYEnVmAMksNqtPcyIy+xfupj8KItRumVkF+JrutYv349CgoKqq1dsFgsSEpKQnJyMiwWC+Lj45GZmRn+NkJIHZ0dQVXoEK4D0LI/AXjAqPZ1WMFsaq1JHQQHKjwScvItOJlrQWmZDF2v+TPV0TSGkjIZJ3MtyMm3wOORap01DgDAJEjxRopEMACBEmg/v29MO/cLAqskSbBarbDZbLUuslz9w4ckSRHvr26h3r9nD13XsWfPHgQCgfCXIMsyunfvjmnTpmHOnDl44YUX8OSTT2LixIlo27YtHWNCztBZ0VFJaC4E9j0J7fArgO4DU2XIGYmQ7DV3pNB14ESuiuXrk/Hjz1ZwDiQ7dVwzoAQXdq6AxVL3n+7zMXy9x4GPtySiuEwBYwLd2ntw/aAipCTrtTfpCgG93AM9rxzQOVhcc6hd/w656dVnNHaVc45jx47h3XffRWlpafjLVWiahnXr1mHPnj0RJRbGGDp27IgRI0aE/r86kiRh7Nix6Ny5c43vI789IQROnTqFG264AVu2bIk47pmZmXjuuedw1VVXwWq1gjEGzjk0TYPFYqnxIYwQUr2GH1SFAC/bA983t0OU7QckQEqyQW7kBKslkp3Ms2Du0nTsOmyH12+8V5YEshr7cfeofPTs5KlTYNV1hq92OjD/32koKFGgcyOgOGwcvTq7cffoAjRJiywNhBOaDi23FMLtByQL5CbDoPZYCKY2Cn9rnWiaBo/HU2tbmd/vx9SpU/H2229D1/Uqr8myjJtuugkvvvhirTdSxhji4uKoE8tZQAiBAwcO4LbbbsO2bdsigupFF12EVatWoUmTJvSAREgM1RyVGgKhQc//HPCcMqpKFQmS0w5WS3J8LoCdh+zYfeR0QAUAnTP8lK1ixcZkuCrq9vO9fobVXyUiv9gSCqgA4PZK+HafA9/sddSpEpfJEiSHaux1rkGU/gBR/uMZ9wRWFAVOpxOJiYk1LgkJCdUOj2CMwWKxICEhIeJz4Qv1Cj27BHv1RmO1WpGcnEwBlZAYa/AlVeEvhH/7FOgnVwJCB0u0QUlNqLXHr8fD8NaaFCz9rNHpecUraZHux5wpJ5DeSAt/qQohgBM5Kv62sClO5KsRbaiSBNw6tAh3XV1QW/MuAIB7/dBzSyF8OqA4oHZ9BkrWHYAUPejFgs/nw/3334/XX389oqSqKArGjh2L1157rc4BMzj8ItqpU7nq0OfzoaSkBBUVFRAQsFltiI+PR3x8fK0Ze/x+P9xuN7xeL/x+f5XtDrYlq6qKuLg4WK3WWtcXxDmvdlhQeLWnEAJerxculwterxeapoExBlVVYbfb4XA4oKrqGQcmXdfh8XhQUVEBv99fZbuCDzuqqsJms9W5hkDTNGiaFiqp3nnnndixY0fE7+3bty9Wr14Nu90e+pskSbBYLHX6PZxzeDye0FK53TZ4bBwOB+x2e53WF87v90etgZFlGRaLMTlFcEiZy+WCrutQFAUOhwMJCQmh91R3rjLGoChKleOtaRrKy8tRXl4eOhYWiwU2m3He2my2an8L5xzl5eWhc1YIAVmWYbVa4XQ6Ybfb63yOVodzDrfbDbfbDZ/PF7omFEUJXQsOh6PWGqdwuq5HbXcPnuuMMQghUF5ejtLSUgQCgVA/DKfTibi4uPCPhgghEAgEUFFRETpPNO30PVeSJKiqGtr+Mz1fGpIGH1R56Q74t00EL94BMEDOcEJ2xtXaQcnvZ3h3bTIWrUkJlS4lBoAZgTIrw49nJ9ceVAEgr0DB1Fea4ViOaq7AKAkDgCILjL2iCH8YWVinHEmCc2h5ZRAuLwAFSsvbYDnvCTA1JfytMRProFpUVISNGzeioKCgyt/j4uLQp08fZGZmorCwEJ9//jmWLFmC7777DpxzdOrUCQMGDMDQoUPRrVs3OJ3OKp8XQqCiogLHjx/Hjh07sHXrVhw4cABHjhxBUVFR6H0JCQlo164dWrVqhe7du6NHjx5o164tEhOTar1xFRYWYvPmzcjJyanyd0mS0LdvX3Tq1Cl0Azl8+DC++eYbrFu3Dj/88APy8/OhKAratGmD8847D4MGDcJFF12EFi1a1DkYBW8yOTk5OHjwILZt24bvvvsOP/30E44dOxY6PrIso2XLlsjKykKXLl3Qo0cPnHfeeWjWrFm138U5x86dO/H999+Dc46cnBy89tpr+Pnnn8PfitatW+PPf/5zKPgAQLNmzTBw4EA4HI4q761M0zQUFhaG9s3OnTuxY8cOnDp1CrquQ5IkdOjQAVlZWbjooovQq1cvtGrVCqmpqXU+vwBg/fr1OHToUJW/ybKMjh07olevXvB4PNi2bRuWLl2Kzz//HMXFxUhPT0e//v0w4qoRuOiii5CRkYHS0lKsWbMmIuuY0+lE37590aJFC+i6jsLCQuzYuQOf//dzrF+/HsePH4emaWjSpAm6deuGQYMGYeDAgWjZsiUU5fREHcHkGvv27cO6devw9ddfY9euXQgEAkhMTETHjh0xePBgDBw0EB3ad4DT6Yx67GqiaRoKCgqwf/9+fPXVV9iyZQt+/PHH0DWRmpqKVq1aoXfv3ujfvz/atWuHxo0b1+mBT9d1HD16FJs3bw5l2ApKT08PnQ8HDx7EBx98gBUrVuDYsWNwOBzo3r07hl4xFJddehlat25d5fgKIeB2u3Hs2DHs27cPX3/9NXbv3o1jx44hPz8/9D6Hw4G2bdsiMzMTPXr0QO/evdGqVSs0amSkzTwbNfCgKqBnfwz/9/dAePMAVYaSkWDMjVoLIYBN2+Mxd1k6ilwKrBaOfl3dyEgO4PBJK9q18OGmy4vgdEQ+DYfz+CS88VEKjpy0on2mFwWlCjbtiIfHLyE1UcOU6/NwSY/y8I9VSy8ph17oBjgDSzwPtt5LwOLbGAH7VxDroLp//37ceeed2LVrV5USQHp6OubOnYuu3briiVlP4D//+Q/y8/OrBApVVZGVlYWlS5eia9euVW5OR48exTvvvIOPP/4Y+/fvh9frha7roWQFQczMQSzLMhRFQfPmzTF8+HDceuut6N69e7W/QwiBvXv34s9//jO+/PLLKutUFAVz587FHXfcgYMHD2LJkiX44IMPcPDgwVBJOfh+SZKgKApsNhv69OmDW2+9FSNHjkRiYmKNNzEhBEpKSvDxxx9j6dKl2LZtW+jJv/L6gyQzB6+iKIiPj8cFF1yAUaNG4brrrkNaWlrEA4SmaZgzZw6eeOKJ0H7z+XwR60WlHt+VDR48GK+//joyMjKq/B2Vgsf69evx4Ycf4quvvkJOTk6VknFQ8NhYLBakpaWhb9++uPbaazF48GA0atSoxn0Ecz/98Y9/xLvvvlvl76qqYsKECfjrX/+KZcuW4aWXXsLRo0dDpUpmlu6bNm2KRx55BLfffjt++uknjBgxAidPnh4XzhhDVlYW5s6diz59+uDrr7/G4sWLsXbtWhQVFVUpJQdLtHa7HRdeeCEmTJiAYcOHwRnvRCAQwK5du/Cvf/0La9asQU5OTuhYBj8brFVp07YNxlw7BuPHj0fTpk1r3Qcw90N5eTk2bNiAZcuWYcOGDVW2L7jPg99jsVjgdDpx0UUX4brrrsPw4cORnp5e43f5fD6sXr0akydPrtLhkTGGnj174rXXXkN2djZmzZqFLVu2wOv1gnMOxhhkWYbD4cAdd9yBxx9/HImJiYB5Hh45cgTvvPMO1qxZg/3798Pv90PTtIhrGWHnS2pqKoYMGYJbbrkFvXv3Rnx8fJX3nhVEQ6ZVCP+Pc4R7ZaJwL7cKz6cJwv99cxHYlVWnJf/L1mLeYz3F1cMHi5l/6i2OrmsrKrZliez1bUTR5lbCvzPyM9EW/84sUfBVa3FyfRtR8V1L8dO6tuKhSX3EqKsGi3mP9RSFm1tHfKamxfd1E1HxkUO4l1tFxYdpQi/cIgTXwn99zHi9XjFhwgQhy7KAMYYntCiKIv7whz+IQCAQ/rFq/fDDD6J79+4R60pPTxdLliwR06ZNE6qqRrwOQEiSJAYMGCAOHjwYWh/nXBw4cECMHTtWOByOiM/UZVFVVQwYMEB89tln1f4WzrnYtWuXGDhwYMTnFUURCxYsELt37xYjR44UcXFxEe+JtjDGRNOmTcWCBQuE210e/pVV5Ofni2eeeUY0bdo0Yj11WRhjIjExUUyaNEkcO3ZMcM6rrD8QCIgnn3wy6nGuy3LZZZeJ7OzsKusUQghd18XRo0fFxIkTRZMmTYQkSRGfrWkJ7qOpU6eKU6dOCV3Xw7+iCs65uO222yLWo6qquOeee8SKFStE69atBWMs4j0ARMuWLcUnn3wiAoGA2Ldvn2jevHnEe1q1aiU++OADsWjRItGlS5c67TPGmGjRooVYtmyZcLvdYvPmzaJ///7VnuvhS0JCgpg2bZrIz8+POHbhOOeiqKhIzJ8/X7Rt27Ze+5wxJtLS0sTkyZNr3d9er1csW7ZMJCYmRqznwgsvFB988IEYNmyYsBg9OiMWq9UqZs6cKTwejxBCCE3TxJ49e8To0aPP+FqWZVm0a9dOvPrqq8Lr9YZvcoNXc13Zb0pA6BUQ7p9C86TCItfallpZolPH2CuK8PBtOfjD8EI0TQvAYgFSUzQ443ltNcghjBnrSk/RYFEFGqdqGD+yANNuz8bYK4vhdFQt/dWGqbJZFw0I3Q/u+tEYf3uWCwQCWLlyJZYuXRq1jQZme9uoUaNCpaFg6e3vf/87VqxYEVFNV1d+vx+bN2/GvHnzqpRK6koIgV27duFPf/oT1q1bh4qKivC3RCWEQE5ODubNm4dvvvk2oiYgyOfzYfHixXj22WeRnZ0d/nKdCCFQWlqKt956Cy+//HJE9fuvgXOOH374AQ899BDeeecd5OTkRG3rrIkQAtnZ2Vi4cCEmT56MXbt21XsdMLflxx9/xOzZs3H8+PGIEg/MUk+HDh1w8cUX11h96Ha7sWLFCjz99NPYt29ftcetMiEETpw4gQULFuD111/HtGnTsHXrVvj9/vC3RuVyufD666/j3//+d62fcbvd+Oc//4knnngCR44cqdf+EkKgoKAAb731FqZPn44jR45E3Ve1KSoqwquvvor169dXez1nZGSgV+9esFqtEELgyNEjmDFjRtQq97rSdR2HDx/G3LlzsXr16ohq6Yau7hHqtxBwgZcfMnrHMgamSLW2pVbGGJDg5LiwcwWapgdqH0taR7IskNXMjws6epAQr9dnkwDAGAqkmBsjOETFcUBEP2nPJi6XCx9++CGOHj0a9SJmjKFx48bo1atXqN3O6/Xi448/xgcffACPxxPxfqvVioSEBCQnJyMpKQlOp7PansyapmHz5s3YuXNntTeB6nDOsWLFCmzcuBFerxeMMdjtdiQmJiI5OblK55dwnHMcOXIES5YsgcvlCn8Z3EwX+K9//QvFxcVV9o0kSaE24qFDh+Lqq6/GyJEj0bt3byQnJ0etyna73XjzzTfx3//+N/ylUHWxEtYJJ1ywWrPyEv5+IQR++uknPPfcc1i1alW1ifiDVZx2u73adjwhBFwuF1atWoUXXngBp06dirqumui6jq+++grffvttlc4ulcmyjEsuuQQJCQlRtyMoPz8fS5YswYEDB8A5h2L2pA+eZ3FxcVE/L4TAli1b8Mgjj+DLL78MdV6rfK7Ex8dH7MvgZ/Pz87Fs2TIUFRVV+/sDgQDWrFmDefPmIS8vLyKgSpKEuLi4UCasaNeEEAJlZWV499138fbbb9c6lj2a48eP47PPPoPX6w1/CTC3o3Xr1jj/vPPBGIPX68Wqlauwdu3aiEBosViQkpKCnj174sorr8TVV1+NK664Ah06RG9n5pxj//79eOWVV/DTTz9Vu68aohiFmV+H4D7AlwdAGCW7KCdqXTBWr1hcJ790naESt+AQnhMQPPpN4myiaVqoDY8xBofDgebNm6N58+ZISkqCoijo2LEj2rRpA2b2KMzPz8e8efMigg0ApKSk4NZbb8Vrr72GlStXYvny5XjhhRcwevToqBcizCnONm/eHBGgayOEQF5eHgKBAFRVRYcOHTBlyhQsWrQIK1aswIIFCzB69OhQu1G4QCCAHTt2RO0UpGka1q5di8OHD0fcINu3b49nnnkG77zzDl555RW89NKLmD//JfzrX//CP//5TwwZMgRWa2QfgsLCQrz//vtV2kwlSUKbNm0wYsQIjBw5EoMGDUJCQkL4RwEASUlJGD58OK6++urQ0qdPnyrfVVxcjMWLF2PFihVRe9BKkoSMjAz069cPd999N6ZMmYJbb70VnTt3jrqfhDmf6+rVq7Fw4cJ63+iFEFXGZauqioyMDGRmZiI9PR0Wc2hYn759op4blQmzwxjMjm9XXXUVnn/+ebz//vt49913MXXqVLRo0SLqevx+P1wuFzRNg6IoaN++PaZMmYK3334Ly5cvxzPPPIMePXpUG1j37t2LAwcORC0dc86xZ88ezJ8/P2qtgNVqxXnnnYdp06bhvffew/Lly/Hyyy/j2muvRUpKSpXtDe6vt99+G1u3bo36fTUJXs8wH1YaNWqEFi1aoGnTprDb7UhISMCAAQOQlpYGADhx4gS++OKLiAdLRVEwbNgwLFq0CG+++SYWLFiAl156EQsWLMDixYsxY8aMqFm8hBD4+uuvsWHDhogg3aCF1wc3HFzopXtExSedhPvfNuFeZRfeLRkR7ZNn5bIzU3g2NBLu5Vbh/rddeLfeKLgvP3wHxMz/qk01uDDGROPGjcXUqVPFf//7X7F+/Xoxb948ce2114oXXnhB+P1+Icx2o1WrVolGjRoJSZKqtJGpqiqmTp0qTpw4Edo2zrnw+Xzi0KFD4u677xaKokR8t6IoYsyYMaKgoCBsq2tuU638+REjRohNmzaJsrIyoWma4JwLv98vfvrpJzFlypSo+xFmW97atWvDv1b8/PPPYtSoUVHbxWbOnClKS0ujtrEFAgGxfft2MXjw4ND+kSRJyLIsHA6H6Nu3rzh06FCVNrOKigpRVFQkCgsLxdatW0W3bt0ivhOA6N27tzh16pQoKioKLWVlZVXW9emnn4pWrVpFfBbm8enXr5947733xKlTp0RZWZkoLy8XJSUl4scffxRPPfWUaNOmTdR2T8aYyMrKEmvWrAl9V2XVtalWXuLi4sSNN94o3nvvPfHll1+K9957T9x2221i8uTJ4vjx46F1VdemGlySk5PFww8/LI4fPy58Pp/gnAtd10VRUZGYM2dOje2CsiyLCy+8UKxdu1aUlpaGzhWv1ys++eQT0alTp4jPABCJiYli4cKFoXbIysrLy8XMmTOjttPKsixGjx4tduzYIcrLywXnPHRunjx5UsyePVukp6dH7HNJksS4ceOitpfX1KYaXCwWi+jTp49YsGCB2LBxg1izZo34y1/+Im644Qaxffv20DmzevVqkZmZGfH5Vq1aiY8//jjqPYZzLlwul3j99ddD7fXBc9xisYiUlBQxefJkUVJSEv7RBqtBl1SheyC8OYBZ8qlPe+rZRRin3zkiJSUF06dPx8MPP4xBgwZhwIABmDhxIl5++WXccsstoSpNIQRsNhsuv/xy9OrdKzTERpZlXHDBBRg3bhyaNGkSej8zx821bNkSw4YNQ0pK5DAkXddx7NixaqsHa8IYQ2ZmJqZPn44+ffrA6XRClmUws1dpZmYm7hp/V7WzuJSWllYZ+lP573l5eeF/BsySSfA7wimKgq5du+KGG25Ax44d0a9fP4wbNw6zZs3Cq6++iieefCIigYPdbkdycnKoylqpNPyjMkulRPrBxel0VulRvHLlyqglb8kcfvTSSy9h1KhRaNKkCZxOJxwOBxITE9G2bVtMnjwZs2fPRuPGjcM/DmG2Ta5cuRJlZWXhL9dKlmWMHTsWTz/9NK655hr06dMH1157LebOnYuHHnoo6ndWZ+jQoZg8eTKaN28eqrqWJAlJSUm4fOjlaNeuXdT9B/M8nzJlCgYMGICEhITQcbRarbjkkkswdOjQqKXVQCCAw4cPRz1Hc3NzsWHDhog2V8YY+vbti4ceegjnn38+HA6HcU80z80mTZrgrrvuwpgxY6qMPYZ5jn3yySc4ePBglb/XBWMM5513HmbPno3x48fjkv7G73r88cfx97//Heeff37onCksLERubm74KkKl7crnVhAza7SuuuoqDBkyBOeffz6uvPJKTJkyBXPnzsU//vEP3H777RG/qSGL/JUNiRAAN6ssfmF1a06+BS8uS8MT/2qMdVudyC1QoGl1W6EQQFm5hJ0/2vHK8jQ8/noTbNsbF5EIghgXSb9+/XDjjTciKckYNyqZA7wbN26MtLS00E0qeHN+5pln8M/X/on//Oc/+PDDD7Fw4UI8/vjjyMrKqvZCTEtLi1q1KYRAUVFRvau6YI6Zu+GGG9CpU6eoN0PGGBpnNEb//v2jtq+63e6oVZqSOWQgmmDnpc2bN+PEiRMoLy+vUuUnSRKuu+46LF68GP/4xz/wf//3f5g8eTJuvPFGDBwwMCKoxkKwjXjLli1R92Pbtm3xwAMPoEuXLhFteah0oxwyZAjuvvvuqMMiOOfYunUrDh48GFGtXBPGGFq0aIGbbroJmZmZUBQltH+Tk5PRtGnTqMcmGpvNhmHDhlU77CQxIRHNmjWL+posyzj//PNx2WWXRd0HNpsNrVu3jhiLDfPBr7CwMKJqV9M0HDx4EHv37q3yd5jVvtdccw26du1a7TWRnJyM66+/PuosQ2VlZfjuu+/qta9hPnzdeuut6NGjBywWS+h6ttvtyMzMrHJeB18Ld/LkSTz77LNYvHgx9uzZg/z8/CrttMHr+bHHHsOiRYswb948PPzww7jrrrtwzTXXoGfPnnU+pg1B5B5oSJgESGZHDWEEtzN1qsCCbfsd+O+2BMxZmoEX3kvHll0O5Bcp0HUGUWn9wX9zHSgtk/DDYRveXpOCx//VBMs3JOHbfXHILlR+0facywYPHlztmM3wvznN+Tu7dOmCfv364aqrrsK4ceMwZMiQKuMohZlyT9d15OTk4OjRozFvZ4mPj8ewYcNqfCq2WCzIysqKGiS5mZA+XFJSUtSxnwBw9OjRUInr/vvvD/W23Lt3L/Lz8xEI+NGoUSN0794dnTt3RrNmzUIdYaRfacYgTdPw+eefIycnJ+ImrKoq+vXvh6FDh0YNJkGMMTidTtx4441o1apVxHYKIbB//37s378/6j6rDmMMbdq0QZcuXSKOATNLbnURDM7t2reL2hmMmXmuqwu4qqqiT58+1T7UMMbQvHnzqA9+1fH5fNi5c2fUXrNpaWno3LlzxNjiyhhjuOiii6I+CPh8Pmzbtq3K32rDGEPTpk3Rv3//qNdE+HekpqZGrSXQNA1ffPEFJk2ahOuvvx4zZ87EsmXLsHXrVhw5cgRlZWUQQqBNmzbo1q0b2rZti7S0tFCmtPoc14agYQdV2QZmywDMTi1Ci3xqrqtEhw7VwsE5UOGT8PWeeDy/NB1zlqZj6dokfLkjHgePWXHkhIrDP1uxbV8cVmxIxvzl6Zj1RlOs2JiEwlIFms7AGGCREcNcDSyG6/ptMcbQtm3biBteXQWfdjnnoRSBubm52L17N1auXImnn34aDz74IGbMmHFGQ2dqEgyY0W6yQRaLBS1atIj6RF6d5ORkdOvWLWo6N2Gm0cvLy8OqVaswdepUjBkzBuPGjcNf/vIX/P3vz2LVqlU4cGB/qHNMeKCLNV3XsWHDBpSUlIS/hISEBPTr2y/qTTacZHZkuvjii6PuU25mgCovr3viFFVV0b59+xqzPtVVSkoKEpzVBz3ZTFYSjSzLaNasWY3nuaqqUX93dfx+P/bt2xfRc52ZVcpgRuex6paSkhJ4vV6kpqZGnJ+6mTmpoqKizucPYwzt2rVDampqnYJaq1at0KVLl6jv5ZyjoqIC+/fvx8KFCzFhwgRcd911mDRpEh555BG88sor2LhxI06cOIGKioqIUvzZpO53ht8Ck8EUx+noVbdzIarGKQEkxp8OylwAxS4Fm3fH442PU/HskgxMf60ppr3SDI/8oymeXNQEr36QinXfJiCnyAimwa+3qwKNErRfFAeFFjxpJDBLCoDqL86zBTOrccJ7IdZVMMCUlpZi124jU82UKVMw8uqRuPbaazFhwgTMmDEDy5Ytw+HDh6NWTf4SCQkJtQYLSZJC7Vl1ZbVaMXr06Kg9HCsLlsRLS0vxzTff4K233sKMGTMwYcIEXHvtGEyZMgXffPMNXC7Xr3rTcbvd+OmnnyJu7jDbbFu1ahX+52rZbDa0bNky4iYP8/f+/PPP9apxsNvtaN++fY3BrC6C52pSUlL4S3UiyzKaNGlS43bUdKyj0TQNJ0+ejDivhRA4fvw4Jt83GUOGDMGll15a7TJkyBCsXbs26vlRUVGB7OzsegXV5s2bR63CjqZ169YYOnRore/nnMPv9+PkyZNYu3Yt5s+fj7/+9a8YO3YsxowZg5deeqne50VDEnmmNyBMjgOzNzOCKjdLqmaJlfsC4L4AhB558kRjtQm0bOwP5lyoIqAzlJbLyCuyIKfIgtwiC4rKZPgCpwNpEGNAalIALZvW/YALziH85vYGNKPaOBhUmQTmyASTzp42g5okJiaeUftHSUkJNmzYgCeeeAKjR4/G6FGj8eijj+Ldd9/Ftu+24ciRI1HboWKFMfar5RtljKFDhw64//77kZmZWa+bra7rKCoqwv79+/Huu+/ihhtuwD333INPPvnkjDr51EUwYbuIOPuNB4RobXbVsdlsaN68ebVB9eTJk/W6ecqyXO1wqvqKNja3rpjZbhztd52pQCCA48ePRwRVmKXYQ4cOYefOnTUuu3btQklJSdTAWVFRUa/xwcHfWN3Y43CKomDUqFG4+eaba6ymjsbr9eLUqVP47rvv8PTTT2PkyJF48sknsWfPnqgPdw1Z7M6ImGOA7ACLyzLaVoWA8GvQyyqg55VBzys1lkIXuNtbNbgKAXAOwblRJBUCsiTQta0HapT5U2UAdgZUDgU2BlhZ5A5SLQLntfIg0VkpI5MQ5nfx0w2zZjDV3V7oBS5oeWXQ88qM/5aUA36zHYnJkBytgXMgqDKzHa26KrNodF3HyZMn8fzzz2PSpEmYPXs2Nm3ahJ9//hnFxcWhXKPBG4FkJhqIi4ur9oZW15tAuOrWFwuqquLaa6/FrFmz0KtXr2qTC0QjzPZkr9eLkydPYunSpXjggQewZMmSmN9whBDgnIMLHrVmSKqh01U0zEwyUZ36VmfLslxrYof/lVhvg4BRU1Gd4HlQlyUav98far+sq7i4uDo/JDPG0KxZMzz88MOYPHkymjVrVq97QfDcKy0txZ49e/Dcc89h6tSpNSb7aIh+vbtIDDCLE1JCZ4ApRkelcj/0gnLwch+ER4PwaOClHmh5LvBSN4SmQ2hG4NVyS6BlF0MrKAP3+ADB0THLiz7nlUORjZOKAXAyhl6qjEkOFVfbFSQxhgxJwh1xFoy1W9BRkaCaFb2MAU0aBTCoRzksijFVDff4oBWWQcsuRiCnBHqJ2yiN6hy8tAJ6vgu81ANREYDwBCDcfvCiCoiAbj442MAcrQBWtxO3oUtPT6/z9E3CLKnMnDkTL774Ig4cOFAlmTnMC9VmsyEjIwNt27ZFnz59MGnSJDz44INo0qRJlfXBvOkGZxJpaBITE3H99dfjlVdewV//+ldcfPHFaNasWWhKsbrsM5gPIocOHcKLL76IzZs3xzSwMjNRuixFH+ZTXWes6gghanx/dUN+qmOxWJCRkfGrPgA1RJKZRSk4deKZLA6Ho17XBTN7FNfWJFKZLMvIysrCww8/jIULF2Ls2LHo0KEDUlNTIVczdCwaYSauWLduHebOnYv8/Px6PQz8lhr2mSmpYPbmYBazjl7ngC7MPMASoJgHKKBDL66AXlQOLc8FPb8c3OWHcAeMoJtbBu7yIiXRj+sHF6FJSgASAxIlhiusRkAdYJVxrV3BQKuMy60yLrcqGGFTMMGh4iJVgpUZnZ1GDShB62Y+MAjobi+0nFLwYg+EO2AE/cJyaHll4KVu6MVuwG8+eSqS0buJmQ26wojSkrMdoDYyIvY5IDjEoS68Xi/ef/99vPPOO1GrMhMTE9G7d2/ccccdmD17Nt5//3189NFHeOqppzB8+HDEx8dHXKTM7NQR/veGwmazoXv37vjb3/6GlStXYv78+Rg3bhz69++PrKysUMmgtn0ohMChQ4fw/PPPRx3G80skJiZG7VQFs7RTn9zFPp8Pubm5UavtmZm2sj6lGWaOy2yox/eXkJgU9ZwGgMaNG+POO+/En/70pzNaHnjgAdx5553Vtm9Xpz7XcxAzm1KGDx+OF198EatWrcKsWbMwcuRIdO/ePdSzty4PVJqmYePGjfj0009rfDhrSOq3t/7XRACQbUDluUYZwGwKlIwEKBlJkJxGrzjoArzUC+H2nZ7sFDCCV4BDLy4H8/vRNtOPGy8rRrpTx2VWGaPsFiRIDAwMcUzCDXYFw20KLIxBYgxZioRb4iy40AkMu7gUg3q4YFUFuNcPXuwGAmHVZBwQFX7oRRWAZqRXZPGqub0JYHGVbyAMzN4c0CoArpkb+/tx9OhRfPzxx1FTCiYmJmL69OlYtGgRnn/+edxyyy3o2rUrkpKSqnS1PxsFA396ejpGjBiBZ599Fm8vfhtvv/02XnnlFUyePBkDBw6ste1Q0zTs3bs35rlRVVUNzdsazuPx4OjRo+F/rpbX6602ITwze5dWF8B/b6obrsXMTlV33jkO06ZNwyOPPHJGy3333Yf27dvXO0ieqWCnvvbt2+POO+/EG2+8gcWLF2PRokWYPXs2br/9dnTt2jXqeVZZYWEhPvvss5jWyPya/jd7t764H7zoO/h3PIjArqlGwvlKmKKA2VRIDiuk5HhI8VYjN7AwS4Ayg5Rsh9w4AcxuMYKun4O7vFAtHIN7uvCna/IxorUPCVYR6sXLADgkCXGVejNJMkez1ADGX1qCG4cUIzlBh+AcvNwL4dOMIB9ngdwkEVJKHCAbk5iDGyVq5lAhpzghOaxgdhVMrVT9Ijh4/hfwf3cX/Nvvg16w6ZyYraYuOOc4ePAgtm/fHv4SVFXFHXfcgbFjx6Jt27ZwOByh0lswyGhR5vFs6ISZb9blciE/Px95eXnQNA0OhwOZLTLRr18/3HzzzXj44Yfxj3/8A5988gkWLlyI0aNHVzvesbi4OOZDi2RZRu/evaP24iwrK6tzbmXOOXJzc/HNN99ELWWoqorOnTvXq3rxXGa1WtG5c+eoQaa4uBgFBYVQVRVWq7XaBea1EXxwq7yoqvo/Caicc3g8HpSUlCA3NxeFhYWwmBm8OnXqhCuuuALjx4/H47Mex+J3FuOjjz7C448/jh49ekTdPs45Tp06heLi4vCXGqTIX/Cb4+BlexDYOwPasbfBS/cCWtXB0ELXQ6VRyWqBlOwAs54OVsyqQE5yQIq3Q27kMGa3ASC8ASCgId7B0aunCy2uzoblwgJImeVgiT7AogOSABQOFh+A1MQDpVsxHMNOouWAQiQnGDPSCE0HrwgYwVOSICXYIcfbICfEgdlOXxDMqkBOdkBSFSNkC2G2pQYJCF8BeMlOaMeXIrD3/8DLfjCmujvH+Xy+0MDvcIqiYODAgVEn4kalttjCwsLwlxoczcySs2nTJqxatSqUMeaxxx7DY489ht27d0ME03CaVZtpaWlo164d+vTpE6r6HjBgQPiqQ+2V4SntfilZlnHppZciNTU1/CX4fD5s3LgRn3/+edRAGSSEgNvtxvLly6NmTWKMoWPHjujSpUvUIPJ7ZLPZ0KtXr4ies8Kc7GHnzp01Tkmocx1fbPoCCxYswKJFi/Dxxx9j06ZN2L9/P7Kzs2N+ngQJczL17du3Y926dVi+fDleffVVzJ49G3/7298wf/78UBMFM9NAOhwONGvaDOd1OQ9DhgzBgw8+iJkzZ0b89iBN06ikesZ0L/QT70PP3wDoXqNrrioZJUBm1JAKnw7u9holUwCSVYWUGBdqY2UWBZAkMImB2VXAqhgxTePQXR6Ac0gWAUtmBeKuyEbcqJ9hG5YN29BsWIecgu3ybNiuPAX7yJ8RN/wU1M5lkOzmnK5cgHv8QMD4f2aVIdmtRpuoIp8O7ooEKTkOktViBFQuwN1+I7DDLBYrEqDKxnYLH3jR99COvg4R9hBxLuKcV5lhJVxJSUnUm7Yw54rc+vXWqAG5ofH5fHjvvfdw11134eabb8Yf//hHPProo1i4cCHeeOONGuduDZY2MjIy0KlTp/CXQ6/HR0kD+EvIsoz27dtXmxIv2Elq3759UY9hMKD+97//xWuvvRYxawnMB6d+/fqhdevWNVZx/55YLBZ07NgRLVu2DH8JPp8PS5Yswfbt26P2EBZCID8vH6+9+hoeeeQRTJgwATfffDPuvPNO3H///XjEnKru1yDM1KAzZ87E2LFjccstt+CBBx7AM888gzfffBNLly7Ftm3bojYBwDzf4uLiqi2lw3zgOFtqNCKvmN+YCJRBL/rGGJ6iSJBT42Fp2ghK40SwYDWvzsFLKsC9ASOwMhhVwU672eGnUu9RiUGKt5mfE+AuH7jv9M2aKQJKhg/W80pgu7gA9kvyYeubD2u3YlgyKyDZqp7APKBDlFWY1bsMksNaaW5UM7+hBEgOFVKczdweAe7zQy90GeNTJaNaWMlIgKVZMuTUBECWAO4Fz18P+AqMp4dzmCzL1V4kfr8fH3zwQdQ0eV6vF+vWrcOiNxdFvbnAfKptKFRVRUpKCo4cORIxHjMQCGDxO4uxa9euap/ChTnB97fffhv+EmBma2ratGn4n38xVVUxevToqMdI13WsX78ed911FzZt2oTS0lL4fD74/X5UVFQgNzcXb731Fv70pz9FTcgPAE2bNq2xWvv3KqNxBvr0iZy6TgiBHTt24Pnnn8eBAweqnEvCnDv1ww8/rDKhuMvlwqFDh/DZZ59h9erVCGjRz7FfiplD6SwWCwoLC6tcl0IIHDlyBO+88w7y8/OrvWb9fj++++67qNeBoiho2bJl1OaIhqjBBVWAA9wPQBhzlqoKmEUGi7NCSUuAnO4EsykQAR16QZlRaoQx8beUYAezyhA+HQilNGSQ7KpRLcuMnsLc5YmeNIKFLWGEzsHL3BB+47PMpkCKN4ZDADCG0vg0wKJASowzZtURAtwbgF7kBgI6mE2BnOqEkpYIKc4KZlGM0q3ZFit0PwSPXnI5l1itVrRu3TrqvJu6ruPzzz/Hc889F0o0f/LkSaxfvx4zZ87EjBkzqm1fCVa3/lpVXfWlKAouueQSXHLJJdFLfQcPYfLkyXj55Zfx9ddf48SJE8jNzcWpU6ewY+cOLFu2DI888kjUoGq32zFw4EBkZWVF3IRjoX///rj11luj9s4NBAL4/vvvcdddd+H222/Ho48+iieffDKUZvGxxx7DsWPHopZOEhMTcdddd6Fnz57hL/3uJTgTMGrUqKjZt4QQ+PTTT3HzzTfjiSdm4d///jfWrFmDpUuX4tFHH8WsWbOizpIkSRKuueYadOvaLfylmAgG1dGjRyM9PT38Zei6jhUrVuDBBx/EihUr8MPeH5CdnY3c3FwcPXoUmzdvxvz58/HMM89EnRA9IyMDI0eOjHoeNkSRV/lvjVnBbE0AMCOIlRuJHRhjYIoM2WmHnJYAFm+F8OnQi8pDgVVSZTCnDULXoZdVGG2vAJhFhuS0GW2rAuDlXnPsan1KgwLc6wMvN3sXywyS0w6mmD31hAB3eSH8GuQEG5jVqMbg/gD0onIIb8DotJSWADkxDswiA8z8jS6P0YuYSWDWFDA1si3rXBNsU+vdu3f4S6E2mn/+85+49957cd999+G+++7DpEmT8MILL+Do0aMRJdjKKioqkJ+fH/7n3wRjDO3atcWECROiZlMKBALYvn07pk+fjokTJ1b9vRMn4f7778eqVasikqxLkoROnTrh3vvu/dWe4Js1a4a7774bvXr1ithumDfL48ePY/Xq1ZgzZw6efPJJvPLKK9iyZQsKCwsjjhEzp+674YYbMH78eCqlRiHLMvr27Ytx48YhKSkpYr97vV7s3r0bTz/9DCZMmIAJEyZg4sSJWLBgAU6cOBHxEMMYw/nnn49bb701NJn4r0FRFFx22WUYM2ZMRLuoEAKlpaVYtmwZ7r//ftwz6R7cd999uPfee3Hvvfdi4sSJeOyxx7Bz586I7VdVFSNGjEDfvn3rNcb2t9QAgyoDs5ilFw7wMp8ROH0B4yJlDJLNAiXFCSnJDqHp0AvLwb0+AAyy0w5mtYC7jM8ZSfgZJIcNzGEOv9EEeKHbCMY13JxDBMA9AfBCt1F9yxhYvNWo+mUMQtOhFbrAXR4wq8Xo6QtmVPkWuSF8GqQEO5TUBEg2i1ElLAS4LwC9yEgOYVQny2C22FflNVSZmZkYPXp0tUNHvF4vdu7ciQ8++MBMKn8gVD2kqio6duwYcQHDTLP3ww8/RNzUfysWi4qrrroKEydNRNOmTSNKrJxzuN1u7NixAx9++CGWL1+OlStXYuvWrcjPz4+40UiShKysLEyaNAldOkfO1hIrkiShS5cumDFjBvr27RtKUhFOmDmLdV0Hr5T9qjLGGBITE3H77bfjL3/5CzIyMqKuixhTEN5222248cYbo14bwf1dVFSEEydOoKysLGq1qiRJaNGiBe677z707NnzVztPgjIyMjBx4kQMGzYsasYw3Zxh6osvvsCKFStCJe3du3dHJPpnZtKXQYMGYfz48Weco/m30LCCqtDAS7ZDz9toRDIA4NxM4FAKXu4xSp+MgVkUKKlGqU8EdCN4BTQwRTbbVgFe5jVSGHIBJktGZ6ZgpyWfFgrWteEB473CpwHC6JwkJ8aFSqnc7QMvqQAEM0rEqgVc06AXlgPeAOSkOMipTmM4DWNGSdrtNbItlZgB1fgi8KKvwQs2/y56AFutVowZMwbXXHNNnVPPMcaQkJCAoUOH4sUXX8QFF1wQEaRcLhfWr18ftSrptxDc5nvvuRczZsxAmzZt6jTwPRwzU/61b98ejz72KG6++eZf/endarVi0KBBWLhwIUaOHHlG+ZFlWUbz5s3xhz/8AbOemIV27dpFHDNyGjMT2U+bNg1jx45Fo0aN6rW/gudJhw4dMG3aNNx0000xmdWnNpIkoXPnzpg7dy6uu+46JCcn1/tcgbkeu92OK664ArNmzcIFF1xwRuv5rdT9SP0v6B7oJ96H8OUbPWvjLEYP2ngroHPoBeXQC1xGCTM4pCYxDnKKA+AcerEbQueQHFbIjeKNAGdRQsmKJFWBkhJv9A4GIDxm1aw/cDqIh+F+DXqhC6LCbwRUVYbUyGH26jUw1ahelhs5IDlsoRSF0HTjvYnGU5sQArzCBz2/DHq+C8KvQYq3QkqKA4uzAExA+Iug566F0Oo+HVatmNGzUFXVqEt1Pe6qw8LGwAXXY7Va653tplGjRnjyySfx0EMPoW3btlCrydsbfHLt1q0bHn30UcydOxcXXXQRLr3s0lC+4eAiyzK2bduG3bt3R5TymDlspfJ2B7e9uu8OJ8tyxG8PLjUFOYfDgZtvvhmvvfYa7rvvPmRmZsJms9V6w5QkKZSYfuLEiXj11Vdx0403Re1EVJlkTg4fvgSPU10pioJOnTphzpw5mD9/PsaMGYOMjAxYa8hcxcyq3tTUVFx33XV46aWXMH36dKSnRZ+fNJyiKFG3W63nWMvgdlS31LYt0c6V4FLbdgT3f/g1UtfrpFmzZpg+fTrmzJmDyy+/HMnJyTUet+BvbdKkCcaNG4eXX34Zt912W63JNSQzn3b477NarfUOZszM//vUU09h/vz5uOqqq0KTbNS0v4IPAvHx8ejZsyeeeuopPP/88+jZs2eNn2uImIhWV/MbEf4ieL8YClG2F2ACcuMEY7iKmUyfuzzgngAYY2BOGySnHZIiQQgB4dMgvH5IzjgwRYIwE+kziaFKCkAhoJd5oBeVG+2YEoOUZIPcyAkWdvAENzIx8eIKgAPMIhklzkqdk4w3CqPjkzmMx2gL9hidrKyqUdurc/AyD7jLC3AOFqcaHassCiAx8HIj8T40AbnpSKgXvARmi5zw90zouo61a9di586dEVVzwSq+4cOH1/nkzc/Px0cffYTc3Nwqf2eMoXXr1qEbQF0JIeByuXDgwAH85z//waYvN+HEzydCVVo2mw1ZWVm49NJLccUVVyAzMxPx8fHgnGPPnj347LPPIjomqaqKSy+9FF27dq1yY8jLy8PatWsjeqUys3QwZsyYGoNVIBDAgQMH8Omnn0Z8pyRJGDJkSK0dcDjnKCkpwdGjR/HNN99gy5Yt2L9/f0Q1XnCoQbt27XDJJZfgwgsvRLt27ZCUlFTrzU4IgcLCQnz44YcRxwkAmjdvjptuuqnGm3Q4YSavKCwsxP79+/Hll19i69atOH78GHw+f+jcstlsaNGiBS6++GL069cPHTt2RFpaGtR6dDT58MMP8cMPP4T/GU6nE6NGjUKzZs3qdL4WFBRg6dKlEcN6mDnv75VXXlntkCSv14vPP/886sOZzWbDNddcE3X4S9CPP/6Izz77LCKNZPAh5fLLL4fVTNhQHWFOh5idnY3du3dj/fr12L59O/Lz86v0ALZarWjevDn69u2LwYMHo0OHDkhJSan1PNF1Hfv378enn34a0TtdkiQMHDgQF198cZW/14Uwx1Dn5ORg3759+Oqrr7Bz504cPXo0NElGkNVqRUpKCrp164b+/fuja9euyMzMrHMO8YamYQXVQAn8W26EXvgVIHTIqQ6jFMckAEbgEt4AuMsL7g2AqbKRXCEYeIUxhKY2gnPwsgqjR64mAIsEJSPRHG96+n3cF4CeU2L0JpaZkVAiOS4i+EYjuDGg3+jg5IdeUgHh9RuZoJw2o0dy8IQXAnpphRFUOSA3vwZq93lg1siedGfK5/NVO9REUZRaL+7KgmNMw280MANBXZ7io9F1HR6PBx6PB3l5eaGsPSkpKaG5TsNLdsHkB9FOY9UsOVa+MGvb9ppKXzBvFrqu1/iddQ1UwW3xer3w+/3Iz88PVVkzxhAXF4dGjRpBVVXYbDaoZim8rmr6rcHSb02/tSbBY+Xz+VBeXo7i4uJQJp/09HTExcXBarXCZrPVWHqvTnXnKzNrSeq6H7g52X20Y1Xb8Q4GtDPdjprOzWBJvLrvDhcMUh6PB35ztpmSkhJwbnTiTE5ORkJCQmg8Z03bFa6m7azP+RxN8HoJnuNutxtFRUWhvhGSJCElJaXK+VKXUnxD1rCCql4B7cc50H6ca1R/qjLkJLsxbEU2essCRkYjvdwL4fIAimxU9Vaqjq0LoevQ8sogXD5jnGtyHJQU5+nvEAK8xA290G2UeB0qlPTE071964j7A0aw1DmkeJvxW8zqZwhzbtgKH/QSD+DTAMkCS9vJsHSaDig1V9sQQghpWOpfnPg1MdmYP1Uyg45mzD6j5ZUZQ2QCGgTnYIoMJTEOSpNkSA7VSBRRT0yWjd67RiEYwq9XHbvKBbgnmFzCSCBR34AaJMVZoWQkQU5ygFlkc9JyDbrLAy2v1BzDaj4NSyqYLeOcmF+VEEJ+bxpWUOV+8MLNELpZenRYjWT0dhXcEzADUDm42xcKrpIzDsxW97aaypgsAcGqxIgCu4AIGL19ATP14RmQgokgVAWCC+jlPujFbmj5ZeBuHyS7FXJKPFi8zah61ivAS/dA6LUnLCeEENKwNKygKozer4AxtpTZVchOG+QkB5SUeEgJdghfAFp+GfRCYwwqq8fkzlFV+1FzvcHXI4JuHZnbJwIa9AIX9AIXhMcPKd4KJdUJOdkB2WmHFKca3yWEUfXNq3YaIIQQ0vA1qKDKmAIpoTPAVABGhiLu9Rs1sBYFcrzdSFWYaDeG1JxBtW+IMEuiwSpfWQIqd3JiMJLdB9/uNWelOUNCM2bWkZPiIKcnGDPamKVf7guAl3uN9UsKmKMFmBK9RyIhhJCGq0EFVcg2yI1HgMU1N9o5vQFoeWXg5R5wTTNKfaoFcnI8lMZJYOqZtzsKnYO7/UbufQlgilSp0CoghIBkNZI1gBvjS4NpD8+EZLdCaWK0q0qqkYdYaDp0VwX0vDIIt98snTeGnDoIkM6sSpsQQshvp0H1/gUAoXuhH3sbgYMvQLiPGVXBMjPS/9lVMIdqTFIePv60PjiHVloBXuQGdHMycVUOZTyCMHr/QtchvGa7qsyMHsJJjtPtsPUkhDF2Vvg1CI8fvMKcCk43UxTam8DSdjKUVncCSnxNddOEEEIaoAYXVAFAaOXguZ8icOhl8JJdxiTlzAh+UGRINosRXK0qmMyMcaN1DLBGAvsK6MUVRvKH+rBIkFPijdy+dR0HJoSRiIJzCF/ASGnoCRg5hLkwAqdih+TsAKXtPVCajqaASgghZ6kGGVQBANwHXn4IevZq6DmfgBfvMDrvCDO4SuZE4FaLUcK0yEYVriwb1bmVgp7QOaAbw1i4x2/MNKNxo/1ScULoXkBokZ2RGAOT4wDZCuEvBnjA+E6HChZnNTImySzyu7iZYUnTITTdKJn6NIiA0a5q/AAGSFZICZ0hNb4cStNRkJydADkyQTwhhJCzQ8MNqkHcD+7aD17wBfScteAlOyACZcacq8IsaTIYnYwUI00gkxggy2ZvWqO6V+gcwq8bVa0wxoNKqX2gtLjFGBere42cw1qFsUI1EUxNBmQHAB36sbegF2wBdJ+xUpkZ87zKktHJyfwuwc0SqM7NzknmNgQ3VLaCWeIhJXaDlH4p5LSBkBLPB6S6ZzQihBDSMDX8oAoYUYn7IfxF4K4fwXPXQS/cAuE5YQzB0dynA2xtzLZLOX0glNb3GAGNKae/w5wdhkkW8+/MmD3HdQDa4Zeh56yF8OUBPDJ1WVRMAuQ4MDUZzJYOKbU/5PTLIDk7gVlTAclW56prQgghDdtZElQrETrAA2aA3QdeuhvCdQDCmwPhy4cIlABaOUTAZQRaxsAsCYAlCZItA8zRGnLjYZBSLzH+zuraNsohAsXg+V9Az98A4doP7sk2v6vErJaWwRQnINvArGlgahJgawIpvg2kxK6QknqAWZxGz966fi8hhJCzxtkXVEOMnrQAB3QfRKDELLWWQegVQKC8UlB1ArITsKZCsmYYOXXPKKgJY526F9ybDfjyITQ3oJWFgioUB5hsA9RkMCUBTE0xg6h0ht9JCCHkbHEWB1VCCCGkYTmzAZeEEEIIiUBBlRBCCIkRCqqEEEJIjFBQJYQQQmKEgiohhBASIxRUCSGEkBihoEoIIYTECAVVQgghJEYoqBJCCCExQkGVEEIIiREKqoQQQkiMUFAlhBBCYoSCKiGEEBIjFFQJIYSQGKGgSgghhMQIBVVCCCEkRiioEkIIITFCQZUQQgiJEQqqhBBCSIxQUCWEEEJihIIqIYQQEiMUVAkhhJAYoaBKCCGExAgFVUIIISRGKKgSQgghMUJBlRBCCIkRCqqEEEJIjFBQJYQQQmKEgiohhBASIxRUCSGEkBihoEoIIYTECAVVQgghJEYoqBJCCCExQkGVEEIIiREKqoQQQkiMUFAlhBBCYoSCKiGEEBIjFFQJIYSQGKGgSgghhMQIBVVCCCEkRiioEkIIITFCQZUQQgiJEQqqhBBCSIxQUCWEEEJihIIqIYQQEiMUVAkhhJAYoaBKCCGExAgFVUIIISRGKKgSQgghMUJBlRBCCImR/wf4KBtOfuIIUQAAAABJRU5ErkJggg==;" parent="Pjrin1gWPLtBC2j21D5B-40" vertex="1">
          <mxGeometry x="191" y="116.22999999999999" width="117.99" height="40" as="geometry" />
        </mxCell>
        <mxCell id="Pjrin1gWPLtBC2j21D5B-42" value="" style="group" parent="1" vertex="1" connectable="0">
          <mxGeometry x="740" y="185" width="290" height="180" as="geometry" />
        </mxCell>
        <mxCell id="Pjrin1gWPLtBC2j21D5B-9" value="Blazor WebAssembly" style="text;whiteSpace=wrap;html=1;fontStyle=1" parent="Pjrin1gWPLtBC2j21D5B-42" vertex="1">
          <mxGeometry width="130" height="30" as="geometry" />
        </mxCell>
        <mxCell id="Pjrin1gWPLtBC2j21D5B-16" value="&lt;div&gt;&lt;span style=&quot;background-color: transparent; color: light-dark(rgb(0, 0, 0), rgb(255, 255, 255));&quot;&gt;Blazor components + CSS styling&lt;/span&gt;&lt;/div&gt;" style="text;whiteSpace=wrap;html=1;" parent="Pjrin1gWPLtBC2j21D5B-42" vertex="1">
          <mxGeometry y="130" width="210" height="30" as="geometry" />
        </mxCell>
        <mxCell id="Pjrin1gWPLtBC2j21D5B-21" value="Once the JSON is returned, Blazor renders it." style="text;whiteSpace=wrap;html=1;fontStyle=2" parent="Pjrin1gWPLtBC2j21D5B-42" vertex="1">
          <mxGeometry y="150" width="250" height="30" as="geometry" />
        </mxCell>
        <mxCell id="Pjrin1gWPLtBC2j21D5B-22" value="&lt;b&gt;&lt;font style=&quot;color: light-dark(rgb(255, 255, 255), rgb(247, 247, 247));&quot;&gt;Visualization:&lt;/font&gt;&lt;/b&gt;" style="text;whiteSpace=wrap;html=1;" parent="Pjrin1gWPLtBC2j21D5B-42" vertex="1">
          <mxGeometry y="100" width="110" height="40" as="geometry" />
        </mxCell>
        <mxCell id="Pjrin1gWPLtBC2j21D5B-25" value="" style="shape=image;verticalLabelPosition=bottom;labelBackgroundColor=default;verticalAlign=top;aspect=fixed;imageAspect=0;image=https://devblogs.microsoft.com/aspnet/wp-content/uploads/sites/16/2019/04/BrandBlazor_nohalo_1000x.png;" parent="Pjrin1gWPLtBC2j21D5B-42" vertex="1">
          <mxGeometry y="30" width="60" height="60" as="geometry" />
        </mxCell>
        <mxCell id="Pjrin1gWPLtBC2j21D5B-26" value="Create a web page with Blazor." style="text;html=1;align=center;verticalAlign=middle;resizable=0;points=[];autosize=1;strokeColor=none;fillColor=none;" parent="Pjrin1gWPLtBC2j21D5B-42" vertex="1">
          <mxGeometry x="100" y="45" width="190" height="30" as="geometry" />
        </mxCell>
        <mxCell id="Pjrin1gWPLtBC2j21D5B-43" value="" style="group" parent="1" vertex="1" connectable="0">
          <mxGeometry x="570" y="580" width="532" height="200" as="geometry" />
        </mxCell>
        <mxCell id="Pjrin1gWPLtBC2j21D5B-28" value="a) Developing Python script that will&amp;nbsp;return a list of tokens with token, ID, and offset.&amp;nbsp;&lt;div&gt;This can be done using one of Python libraries.&lt;/div&gt;" style="text;html=1;align=left;verticalAlign=middle;resizable=0;points=[];autosize=1;strokeColor=none;fillColor=none;" parent="Pjrin1gWPLtBC2j21D5B-43" vertex="1">
          <mxGeometry x="12" y="30" width="470" height="40" as="geometry" />
        </mxCell>
        <mxCell id="Pjrin1gWPLtBC2j21D5B-27" value="&lt;b&gt;The order of completing the project:&lt;/b&gt;" style="text;html=1;align=center;verticalAlign=middle;resizable=0;points=[];autosize=1;strokeColor=none;fillColor=none;" parent="Pjrin1gWPLtBC2j21D5B-43" vertex="1">
          <mxGeometry x="2" width="230" height="30" as="geometry" />
        </mxCell>
        <mxCell id="Pjrin1gWPLtBC2j21D5B-31" value="b) Backend in ASP.NET: creating endpoints, calling the Python script and returning clean JSON." style="text;html=1;align=center;verticalAlign=middle;resizable=0;points=[];autosize=1;strokeColor=none;fillColor=none;" parent="Pjrin1gWPLtBC2j21D5B-43" vertex="1">
          <mxGeometry x="2" y="70" width="530" height="30" as="geometry" />
        </mxCell>
        <mxCell id="Pjrin1gWPLtBC2j21D5B-32" value="c)&amp;nbsp; &lt;span style=&quot;&quot; data-end=&quot;1480&quot; data-start=&quot;1456&quot;&gt;Create the Blazor UI. Add finishing touches.&lt;/span&gt;" style="text;html=1;align=center;verticalAlign=middle;resizable=0;points=[];autosize=1;strokeColor=none;fillColor=none;" parent="Pjrin1gWPLtBC2j21D5B-43" vertex="1">
          <mxGeometry x="2" y="100" width="270" height="30" as="geometry" />
        </mxCell>
        <mxCell id="Pjrin1gWPLtBC2j21D5B-33" value="d) * Contenerize the app using docker." style="text;html=1;align=center;verticalAlign=middle;resizable=0;points=[];autosize=1;strokeColor=none;fillColor=none;" parent="Pjrin1gWPLtBC2j21D5B-43" vertex="1">
          <mxGeometry y="130" width="230" height="30" as="geometry" />
        </mxCell>
        <mxCell id="Pjrin1gWPLtBC2j21D5B-34" value="After steps a), b) and c) unit-tests must be developed! As well as updating the raport.&lt;br&gt;The project does not provide any other types of tests (for now)." style="text;html=1;align=left;verticalAlign=middle;resizable=0;points=[];autosize=1;strokeColor=none;fillColor=none;" parent="Pjrin1gWPLtBC2j21D5B-43" vertex="1">
          <mxGeometry x="12" y="160" width="470" height="40" as="geometry" />
        </mxCell>
        <mxCell id="Pjrin1gWPLtBC2j21D5B-44" value="" style="shape=image;verticalLabelPosition=bottom;labelBackgroundColor=default;verticalAlign=top;aspect=fixed;imageAspect=0;image=https://www.artkpv.net/Sample-ASP-NET-Core-Web-API-project/ASP.NET-Web-API-Logo.png;" parent="1" vertex="1">
          <mxGeometry x="220" y="550" width="280" height="85.71" as="geometry" />
        </mxCell>
        <mxCell id="Pjrin1gWPLtBC2j21D5B-45" value="" style="shape=image;verticalLabelPosition=bottom;labelBackgroundColor=default;verticalAlign=top;aspect=fixed;imageAspect=0;image=https://blog.kakaocdn.net/dn/CzYw6/btrMaFXbaxC/cKKYkDqKTim0kgUq0Mf0uk/img.png;" parent="1" vertex="1">
          <mxGeometry x="296.29999999999995" y="635.71" width="137.39" height="76.42" as="geometry" />
        </mxCell>
        <mxCell id="Pjrin1gWPLtBC2j21D5B-48" value="&lt;font style=&quot;font-size: 13px;&quot;&gt;This project is a web-based visualizer that shows how different LLM tokenizers (like those from OpenAI, HuggingFace, Mistral, etc.) break down a given text into tokens. It uses ASP.NET Core, a litlle bit of&amp;nbsp; Python (with its&amp;nbsp;&lt;font face=&quot;monospace&quot;&gt;libraries&lt;/font&gt;), and Blazor WASM for the web interface.&lt;/font&gt;" style="text;whiteSpace=wrap;html=1;align=center;" parent="1" vertex="1">
          <mxGeometry x="290" y="68" width="550" height="60" as="geometry" />
        </mxCell>
        <mxCell id="Pjrin1gWPLtBC2j21D5B-49" value="&lt;b&gt;&lt;font style=&quot;font-size: 29px;&quot;&gt;TOKENIZATION VISUALIZER&lt;/font&gt;&lt;/b&gt;" style="text;html=1;align=center;verticalAlign=middle;resizable=0;points=[];autosize=1;strokeColor=none;fillColor=none;" parent="1" vertex="1">
          <mxGeometry x="355" y="19" width="420" height="50" as="geometry" />
        </mxCell>
      </root>
    </mxGraphModel>
  </diagram>
</mxfile>
